<svg width="0" height="0" class="hidden">
    <symbol xmlns="http://www.w3.org/2000/svg" viewBox="0 0 24 24" id="icon-search-filled">
        <path d="M9 16c1.763 0 3.37-.66 4.603-1.739l1.337 2.8s.275.224.653.596c.387.363.896.854 1.384 1.367l1.358 1.392.604.646 2.121-2.121-.646-.604-1.392-1.358a35.13 35.13 0 0 1-1.367-1.384c-.372-.378-.596-.653-.596-.653l-2.8-1.337A6.967 6.967 0 0 0 16 9c0-3.859-3.141-7-7-7S2 5.141 2 9s3.141 7 7 7z"></path>
    </symbol>
    <symbol xmlns="http://www.w3.org/2000/svg" viewBox="0 0 24 24" id="icon-compass-filled">
        <path d="M12 2C6.486 2 2 6.486 2 12s4.486 10 10 10 10-4.486 10-10S17.514 2 12 2zm3 13-8 2 2-8 8-2-2 8z"></path>
        <circle cx="12" cy="12" r="2"></circle>
    </symbol>
    <symbol xmlns="http://www.w3.org/2000/svg" viewBox="0 0 24 24" id="icon-settings-filled">
        <path d="m2.344 15.271 2 3.46a1 1 0 0 0 1.366.365l1.396-.806c.58.457 1.221.832 1.895 1.112V21a1 1 0 0 0 1 1h4a1 1 0 0 0 1-1v-1.598a8.094 8.094 0 0 0 1.895-1.112l1.396.806c.477.275 1.091.11 1.366-.365l2-3.46a1.004 1.004 0 0 0-.365-1.366l-1.372-.793a7.683 7.683 0 0 0-.002-2.224l1.372-.793c.476-.275.641-.89.365-1.366l-2-3.46a1 1 0 0 0-1.366-.365l-1.396.806A8.034 8.034 0 0 0 15 4.598V3a1 1 0 0 0-1-1h-4a1 1 0 0 0-1 1v1.598A8.094 8.094 0 0 0 7.105 5.71L5.71 4.904a.999.999 0 0 0-1.366.365l-2 3.46a1.004 1.004 0 0 0 .365 1.366l1.372.793a7.683 7.683 0 0 0 0 2.224l-1.372.793c-.476.275-.641.89-.365 1.366zM12 8c2.206 0 4 1.794 4 4s-1.794 4-4 4-4-1.794-4-4 1.794-4 4-4z"></path>
    </symbol>
    <symbol xmlns="http://www.w3.org/2000/svg" viewBox="0 0 24 24" id="icon-plus-circle-filled">
        <path d="M12 2C6.486 2 2 6.486 2 12s4.486 10 10 10 10-4.486 10-10S17.514 2 12 2zm5 11h-4v4h-2v-4H7v-2h4V7h2v4h4v2z"></path>
    </symbol>
    <symbol xmlns="http://www.w3.org/2000/svg" viewBox="0 0 24 24" id="icon-warning-circle-filled">
        <path d="M11.953 2C6.465 2 2 6.486 2 12s4.486 10 10 10 10-4.486 10-10S17.493 2 11.953 2zM13 17h-2v-2h2v2zm0-4h-2V7h2v6z"></path>
    </symbol>
    <symbol xmlns="http://www.w3.org/2000/svg" viewBox="0 0 24 24" id="icon-sign-out--filled">
        <path d="M18 2H6a1 1 0 0 0-1 1v9l5-4v3h6v2h-6v3l-5-4v9a1 1 0 0 0 1 1h12a1 1 0 0 0 1-1V3a1 1 0 0 0-1-1z"></path>
    </symbol>
    <symbol xmlns="http://www.w3.org/2000/svg" viewBox="0 0 24 24" id="icon-tag-filled">
        <path d="M11.707 2.293A.996.996 0 0 0 11 2H6a.996.996 0 0 0-.707.293l-3 3A.996.996 0 0 0 2 6v5c0 .266.105.52.293.707l10 10a.997.997 0 0 0 1.414 0l8-8a.999.999 0 0 0 0-1.414l-10-10zM8.353 10a1.647 1.647 0 1 1-.001-3.293A1.647 1.647 0 0 1 8.353 10z"></path>
    </symbol>
    <symbol xmlns="http://www.w3.org/2000/svg" viewBox="0 0 24 24" id="icon-tag">
        <path d="M11.707 2.293A.997.997 0 0 0 11 2H6a.997.997 0 0 0-.707.293l-3 3A.996.996 0 0 0 2 6v5c0 .266.105.52.293.707l10 10a.997.997 0 0 0 1.414 0l8-8a.999.999 0 0 0 0-1.414l-10-10zM13 19.586l-9-9V6.414L6.414 4h4.172l9 9L13 19.586z"></path>
        <circle cx="8.353" cy="8.353" r="1.647"></circle>
    </symbol>
    <symbol xmlns="http://www.w3.org/2000/svg" viewBox="0 0 24 24" id="icon-home-filled">
        <path d="m21.743 12.331-9-10c-.379-.422-1.107-.422-1.486 0l-9 10a.998.998 0 0 0-.17 1.076c.16.361.518.593.913.593h2v7a1 1 0 0 0 1 1h3a1 1 0 0 0 1-1v-4h4v4a1 1 0 0 0 1 1h3a1 1 0 0 0 1-1v-7h2a.998.998 0 0 0 .743-1.669z"></path>
    </symbol>
    <symbol xmlns="http://www.w3.org/2000/svg" viewBox="0 0 24 24" id="icon-home">
        <path d="M3 13h1v7c0 1.103.897 2 2 2h12c1.103 0 2-.897 2-2v-7h1a1 1 0 0 0 .707-1.707l-9-9a.999.999 0 0 0-1.414 0l-9 9A1 1 0 0 0 3 13zm7 7v-5h4v5h-4zm2-15.586 6 6V15l.001 5H16v-5c0-1.103-.897-2-2-2h-4c-1.103 0-2 .897-2 2v5H6v-9.586l6-6z"></path>
    </symbol>
    <symbol xmlns="http://www.w3.org/2000/svg" viewBox="0 0 24 24" id="icon-search">
        <path d="M19.023 16.977a35.13 35.13 0 0 1-1.367-1.384c-.372-.378-.596-.653-.596-.653l-2.8-1.337A6.962 6.962 0 0 0 16 9c0-3.859-3.14-7-7-7S2 5.141 2 9s3.14 7 7 7c1.763 0 3.37-.66 4.603-1.739l1.337 2.8s.275.224.653.596c.387.363.896.854 1.384 1.367l1.358 1.392.604.646 2.121-2.121-.646-.604c-.379-.372-.885-.866-1.391-1.36zM9 14c-2.757 0-5-2.243-5-5s2.243-5 5-5 5 2.243 5 5-2.243 5-5 5z"></path>
    </symbol>
    <symbol xmlns="http://www.w3.org/2000/svg" viewBox="0 0 24 24" id="icon-compass">
        <path d="M12 2C6.486 2 2 6.486 2 12s4.486 10 10 10 10-4.486 10-10S17.514 2 12 2zm0 18c-4.411 0-8-3.589-8-8s3.589-8 8-8 8 3.589 8 8-3.589 8-8 8z"></path>
        <path d="m8 16 5.991-2L16 8l-6 2z"></path>
    </symbol>
    <symbol xmlns="http://www.w3.org/2000/svg" viewBox="0 0 24 24" id="icon-settings">
        <path d="M12 16c2.206 0 4-1.794 4-4s-1.794-4-4-4-4 1.794-4 4 1.794 4 4 4zm0-6c1.084 0 2 .916 2 2s-.916 2-2 2-2-.916-2-2 .916-2 2-2z"></path>
        <path d="m2.845 16.136 1 1.73c.531.917 1.809 1.261 2.73.73l.529-.306A8.1 8.1 0 0 0 9 19.402V20c0 1.103.897 2 2 2h2c1.103 0 2-.897 2-2v-.598a8.132 8.132 0 0 0 1.896-1.111l.529.306c.923.53 2.198.188 2.731-.731l.999-1.729a2.001 2.001 0 0 0-.731-2.732l-.505-.292a7.718 7.718 0 0 0 0-2.224l.505-.292a2.002 2.002 0 0 0 .731-2.732l-.999-1.729c-.531-.92-1.808-1.265-2.731-.732l-.529.306A8.1 8.1 0 0 0 15 4.598V4c0-1.103-.897-2-2-2h-2c-1.103 0-2 .897-2 2v.598a8.132 8.132 0 0 0-1.896 1.111l-.529-.306c-.924-.531-2.2-.187-2.731.732l-.999 1.729a2.001 2.001 0 0 0 .731 2.732l.505.292a7.683 7.683 0 0 0 0 2.223l-.505.292a2.003 2.003 0 0 0-.731 2.733zm3.326-2.758A5.703 5.703 0 0 1 6 12c0-.462.058-.926.17-1.378a.999.999 0 0 0-.47-1.108l-1.123-.65.998-1.729 1.145.662a.997.997 0 0 0 1.188-.142 6.071 6.071 0 0 1 2.384-1.399A1 1 0 0 0 11 5.3V4h2v1.3a1 1 0 0 0 .708.956 6.083 6.083 0 0 1 2.384 1.399.999.999 0 0 0 1.188.142l1.144-.661 1 1.729-1.124.649a1 1 0 0 0-.47 1.108c.112.452.17.916.17 1.378 0 .461-.058.925-.171 1.378a1 1 0 0 0 .471 1.108l1.123.649-.998 1.729-1.145-.661a.996.996 0 0 0-1.188.142 6.071 6.071 0 0 1-2.384 1.399A1 1 0 0 0 13 18.7l.002 1.3H11v-1.3a1 1 0 0 0-.708-.956 6.083 6.083 0 0 1-2.384-1.399.992.992 0 0 0-1.188-.141l-1.144.662-1-1.729 1.124-.651a1 1 0 0 0 .471-1.108z"></path>
    </symbol>
    <symbol xmlns="http://www.w3.org/2000/svg" viewBox="0 0 24 24" id="icon-plus-circle">
        <path d="M13 7h-2v4H7v2h4v4h2v-4h4v-2h-4z"></path>
        <path d="M12 2C6.486 2 2 6.486 2 12s4.486 10 10 10 10-4.486 10-10S17.514 2 12 2zm0 18c-4.411 0-8-3.589-8-8s3.589-8 8-8 8 3.589 8 8-3.589 8-8 8z"></path>
    </symbol>
    <symbol xmlns="http://www.w3.org/2000/svg" viewBox="0 0 24 24" id="icon-warning-circle">
        <path d="M11.953 2C6.465 2 2 6.486 2 12s4.486 10 10 10 10-4.486 10-10S17.493 2 11.953 2zM12 20c-4.411 0-8-3.589-8-8s3.567-8 7.953-8C16.391 4 20 7.589 20 12s-3.589 8-8 8z"></path>
        <path d="M11 7h2v7h-2zm0 8h2v2h-2z"></path>
    </symbol>
    <symbol xmlns="http://www.w3.org/2000/svg" viewBox="0 0 24 24" id="icon-sign-out">
        <path d="M16 13v-2H7V8l-5 4 5 4v-3z"></path>
        <path d="M20 3h-9c-1.103 0-2 .897-2 2v4h2V5h9v14h-9v-4H9v4c0 1.103.897 2 2 2h9c1.103 0 2-.897 2-2V5c0-1.103-.897-2-2-2z"></path>
    </symbol>
    <symbol xmlns="http://www.w3.org/2000/svg" viewBox="0 0 24 24" id="icon-x-circle">
        <path d="M9.172 16.242 12 13.414l2.828 2.828 1.414-1.414L13.414 12l2.828-2.828-1.414-1.414L12 10.586 9.172 7.758 7.758 9.172 10.586 12l-2.828 2.828z"></path>
        <path d="M12 22c5.514 0 10-4.486 10-10S17.514 2 12 2 2 6.486 2 12s4.486 10 10 10zm0-18c4.411 0 8 3.589 8 8s-3.589 8-8 8-8-3.589-8-8 3.589-8 8-8z"></path>
    </symbol>
    <symbol xmlns="http://www.w3.org/2000/svg" viewBox="0 0 24 24" id="icon-x-circle-filled">
        <path d="M12 2C6.486 2 2 6.486 2 12s4.486 10 10 10 10-4.486 10-10S17.514 2 12 2zm4.207 12.793-1.414 1.414L12 13.414l-2.793 2.793-1.414-1.414L10.586 12 7.793 9.207l1.414-1.414L12 10.586l2.793-2.793 1.414 1.414L13.414 12l2.793 2.793z"></path>
    </symbol>
    <symbol xmlns="http://www.w3.org/2000/svg" viewBox="0 0 24 24" id="icon-check-circle">
        <path d="M12 2C6.486 2 2 6.486 2 12s4.486 10 10 10 10-4.486 10-10S17.514 2 12 2zm0 18c-4.411 0-8-3.589-8-8s3.589-8 8-8 8 3.589 8 8-3.589 8-8 8z"></path>
        <path d="M9.999 13.587 7.7 11.292l-1.412 1.416 3.713 3.705 6.706-6.706-1.414-1.414z"></path>
    </symbol>
    <symbol xmlns="http://www.w3.org/2000/svg" viewBox="0 0 24 24" id="icon-check-circle-filled">
        <path d="M12 2C6.486 2 2 6.486 2 12s4.486 10 10 10 10-4.486 10-10S17.514 2 12 2zm-1.999 14.413-3.713-3.705L7.7 11.292l2.299 2.295 5.294-5.294 1.414 1.414-6.706 6.706z"></path>
    </symbol>
    <symbol xmlns="http://www.w3.org/2000/svg" viewBox="0 0 24 24" id="icon-arrow-back">
        <path d="M21 11H6.414l5.293-5.293-1.414-1.414L2.586 12l7.707 7.707 1.414-1.414L6.414 13H21z"></path>
    </symbol>
    <symbol xmlns="http://www.w3.org/2000/svg" viewBox="0 0 24 24" id="icon-dots-vertical-rounded">
        <path d="M12 10c-1.1 0-2 .9-2 2s.9 2 2 2 2-.9 2-2-.9-2-2-2zm0-6c-1.1 0-2 .9-2 2s.9 2 2 2 2-.9 2-2-.9-2-2-2zm0 12c-1.1 0-2 .9-2 2s.9 2 2 2 2-.9 2-2-.9-2-2-2z"></path>
    </symbol>
    <symbol xmlns="http://www.w3.org/2000/svg" viewBox="0 0 24 24" id="icon-trash">
        <path d="M5 20a2 2 0 0 0 2 2h10a2 2 0 0 0 2-2V8h2V6h-4V4a2 2 0 0 0-2-2H9a2 2 0 0 0-2 2v2H3v2h2zM9 4h6v2H9zM8 8h9v12H7V8z"></path>
        <path d="M9 10h2v8H9zm4 0h2v8h-2z"></path>
    </symbol>
    <symbol xmlns="http://www.w3.org/2000/svg" viewBox="0 0 24 24" id="icon-edit">
        <path d="m7 17.013 4.413-.015 9.632-9.54c.378-.378.586-.88.586-1.414s-.208-1.036-.586-1.414l-1.586-1.586c-.756-.756-2.075-.752-2.825-.003L7 12.583v4.43zM18.045 4.458l1.589 1.583-1.597 1.582-1.586-1.585 1.594-1.58zM9 13.417l6.03-5.973 1.586 1.586-6.029 5.971L9 15.006v-1.589z"></path>
        <path d="M5 21h14c1.103 0 2-.897 2-2v-8.668l-2 2V19H8.158c-.026 0-.053.01-.079.01-.033 0-.066-.009-.1-.01H5V5h6.847l2-2H5c-1.103 0-2 .897-2 2v14c0 1.103.897 2 2 2z"></path>
    </symbol>
    <symbol xmlns="http://www.w3.org/2000/svg" viewBox="0 0 24 24" id="icon-edit-filled">
        <path d="m18.988 2.012 3 3L19.701 7.3l-3-3zM8 16h3l7.287-7.287-3-3L8 13z"></path>
        <path d="M19 19H8.158c-.026 0-.053.01-.079.01-.033 0-.066-.009-.1-.01H5V5h6.847l2-2H5c-1.103 0-2 .896-2 2v14c0 1.104.897 2 2 2h14a2 2 0 0 0 2-2v-8.668l-2 2V19z"></path>
    </symbol>
    <symbol xmlns="http://www.w3.org/2000/svg" viewBox="0 0 24 24" id="icon-hash-filled">
        <path d="M16.018 3.815 15.232 8h-4.966l.716-3.815-1.964-.37L8.232 8H4v2h3.857l-.751 4H3v2h3.731l-.714 3.805 1.965.369L8.766 16h4.966l-.714 3.805 1.965.369.783-4.174H20v-2h-3.859l.751-4H21V8h-3.733l.716-3.815-1.965-.37zM14.106 14H9.141l.751-4h4.966l-.752 4z"></path>
    </symbol>
    <symbol xmlns="http://www.w3.org/2000/svg" viewBox="0 0 24 24" id="icon-heart">
        <path d="M12 4.595a5.904 5.904 0 0 0-3.996-1.558 5.942 5.942 0 0 0-4.213 1.758c-2.353 2.363-2.352 6.059.002 8.412l7.332 7.332c.17.299.498.492.875.492a.99.99 0 0 0 .792-.409l7.415-7.415c2.354-2.354 2.354-6.049-.002-8.416a5.938 5.938 0 0 0-4.209-1.754A5.906 5.906 0 0 0 12 4.595zm6.791 1.61c1.563 1.571 1.564 4.025.002 5.588L12 18.586l-6.793-6.793c-1.562-1.563-1.561-4.017-.002-5.584.76-.756 1.754-1.172 2.799-1.172s2.035.416 2.789 1.17l.5.5a.999.999 0 0 0 1.414 0l.5-.5c1.512-1.509 4.074-1.505 5.584-.002z"></path>
    </symbol>
    <symbol xmlns="http://www.w3.org/2000/svg" viewBox="0 0 24 24" id="icon-heart-filled">
        <path d="M20.205 4.791a5.938 5.938 0 0 0-4.209-1.754A5.906 5.906 0 0 0 12 4.595a5.904 5.904 0 0 0-3.996-1.558 5.942 5.942 0 0 0-4.213 1.758c-2.353 2.363-2.352 6.059.002 8.412L12 21.414l8.207-8.207c2.354-2.353 2.355-6.049-.002-8.416z"></path>
    </symbol>
</svg>